<?xml version="1.0" encoding="utf-8"?>
<!-- Generator: Adobe Illustrator 27.2.0, SVG Export Plug-In . SVG Version: 6.00 Build 0)  -->
<svg version="1.1" id="Layer_1" xmlns="http://www.w3.org/2000/svg" xmlns:xlink="http://www.w3.org/1999/xlink" x="0px" y="0px"
	 viewBox="0 0 20 20" style="enable-background:new 0 0 20 20;" xml:space="preserve">
<style type="text/css">
	.st0{fill:#FFFFFF;}
</style>
<path class="st0" d="M9.8,19.9c-0.3-0.3-0.5-0.6-0.6-0.8c-0.1-0.2-0.2-0.5-0.2-0.8c0-0.4,0-0.7,0.1-1.5c0.1-0.4,0.1-0.8,0-1
	c0-0.1-0.2-0.6-0.2-0.6c0,0,0,0-0.2,0.2C8.6,15.5,8.3,15.7,8,16c-0.2,0.1-0.4,0.3-0.4,0.3c-0.8,0.6-1.2,1.2-1.3,1.8
	c0,0.1,0,0.3,0,0.6c0,0.5,0,0.6,0,0.5c0,0-0.2-0.5-0.2-0.7c-0.1-0.4-0.1-0.7-0.1-1c0.1-0.4,0.3-1.1,0.6-1.5c0-0.1,0.1-0.1,0.1-0.1
	c0,0,0-0.1,0.1-0.1c0.3-0.5,0.4-0.7,0.5-1.1c0-0.2,0-0.6,0-0.6c0,0-0.1,0-0.1,0.1c-0.3,0.2-0.5,0.3-1.2,0.5c-0.8,0.2-1,0.3-1.3,0.5
	c-0.5,0.3-0.9,0.6-1.1,1.1c0,0.1-0.1,0.2-0.1,0.3c0,0.1-0.1,0.2-0.1,0.3c0,0.1-0.1,0.2-0.1,0.2c0,0,0-0.2,0-0.5
	c0-0.4,0.1-0.6,0.2-0.9c0.2-0.5,0.6-0.9,1.3-1.4c0.6-0.5,0.8-0.7,1-1.1c0.1-0.2,0.1-0.3,0.1-0.3c0,0-0.1,0-0.3,0c-0.2,0-0.6,0-0.9,0
	c-0.8-0.1-0.9-0.1-1.4-0.1c-0.3,0-0.5,0-0.6,0c-0.3,0.1-0.6,0.2-0.8,0.3c-0.1,0.1-0.2,0.1-0.6,0.5c-0.2,0.2-0.3,0.3-0.3,0.3
	c-0.1,0,0-0.1,0.2-0.5c0.2-0.4,0.5-0.7,0.8-0.9c0.4-0.3,0.9-0.5,1.5-0.6C3.6,11.7,4,11.6,4,11.6c0.2-0.1,0.3-0.2,0.5-0.3
	c0.2-0.1,0.4-0.4,0.4-0.4c0,0-0.1,0-0.2,0c-0.3-0.1-0.7-0.2-1.1-0.5c-0.1-0.1-0.2-0.1-0.2-0.1c0,0-0.1,0-0.1-0.1
	c-0.2-0.1-0.8-0.4-1-0.5C2,9.6,1.8,9.6,1.5,9.6c-0.4,0-0.5,0-0.9,0.2C0.1,10,0,10,0,10c0,0,0.3-0.3,0.6-0.5C0.9,9.2,1.3,9.1,1.7,9
	C2.2,9,2.5,9,3.3,9.1c0.3,0.1,0.8,0.1,0.9,0C4.4,9.1,4.8,9,4.8,9c0,0,0,0,0.1,0c0,0,0.1,0,0.1,0c0,0-0.1-0.1-0.2-0.2
	C4.5,8.6,4.3,8.4,4,8C3.6,7.5,3.4,7.2,3.1,7C2.9,6.7,2.7,6.6,2.4,6.4C2.3,6.4,2,6.3,1.8,6.2c-0.1,0-0.3,0-0.5,0c-0.4,0-0.5,0-0.5,0
	c0,0,0.1-0.1,0.3-0.1c0.6-0.2,1-0.2,1.4-0.2c0.2,0,0.6,0.2,0.7,0.2C3.5,6.3,3.8,6.4,4,6.5c0.1,0,0.1,0.1,0.1,0.1s0.1,0,0.1,0.1
	C4.4,6.8,4.7,6.9,4.8,7C5,7,5.3,7.1,5.5,7.1c0.3,0,0.3,0,0.2-0.2C5.6,6.8,5.4,6.5,5.4,6.3c0-0.1-0.1-0.4-0.2-0.6
	C5.1,5.3,4.9,4.8,4.9,4.6c0,0-0.1-0.1-0.1-0.2C4.6,4,4.2,3.5,3.8,3.3c-0.1,0-0.2-0.1-0.3-0.1C3.3,3.1,3,3,3,3C2.9,2.9,3.1,2.9,3.5,3
	C4,3,4.3,3.1,4.6,3.3C5,3.6,5.4,3.9,5.8,4.5c0.4,0.6,0.6,0.7,0.9,0.9c0.1,0.1,0.5,0.3,0.6,0.3c0,0,0,0,0-0.3c0-0.3,0-0.5,0-0.8
	C7.3,3.6,7.3,3.4,7.3,3c0-0.5-0.1-0.7-0.2-1.1C6.9,1.6,6.8,1.5,6.5,1.1C6.2,0.9,6.2,0.8,6.2,0.8c0,0,0.1,0.1,0.3,0.1
	c0.5,0.3,0.8,0.5,1,0.8c0.1,0.2,0.2,0.3,0.3,0.5C8,2.5,8.1,2.8,8.2,3.3c0.2,0.8,0.2,0.9,0.4,1.2C8.7,4.6,9,4.9,9.1,4.9
	c0,0,0,0,0-0.1c0.1-0.5,0.2-0.7,0.4-1.1c0-0.1,0.1-0.2,0.1-0.2c0,0,0.1-0.1,0.1-0.2c0.5-0.8,0.7-1.4,0.7-1.9c0-0.1,0-0.3,0-0.3
	c0-0.1-0.1-0.4-0.2-0.5C10.2,0.5,10,0,10,0c0,0,0.3,0.3,0.5,0.6C10.9,1,11,1.5,11,2.2c0,0.3,0,0.4,0,0.7c0,0.2-0.1,0.4-0.1,0.5
	c0,0.1,0,0.2,0,0.3c0,0.2,0,0.4,0,0.6c0,0.2,0.2,0.6,0.2,0.6c0,0,0,0,0.2-0.1c0.2-0.2,0.4-0.5,0.7-0.7c0.6-0.4,0.8-0.7,1.1-0.9
	c0.4-0.4,0.6-0.7,0.7-1.1c0.1-0.2,0.1-0.4,0.1-0.8c0-0.2,0-0.5,0-0.5l0,0l0,0.1C14,1,14.1,1.4,14.1,1.7C14.2,2.3,14,3.1,13.5,4
	C13.1,4.6,13,4.8,13,5.2c0,0.2-0.1,0.6,0,0.6c0,0,0.1,0,0.2-0.1c0.2-0.1,0.5-0.3,0.7-0.3c0.1,0,0.3-0.1,0.4-0.1c0.6-0.2,1-0.3,1-0.3
	c0,0,0,0,0.1,0c0,0,0.1,0,0.2-0.1c0.1,0,0.1-0.1,0.2-0.1c0.2-0.1,0.4-0.2,0.6-0.4c0.3-0.2,0.4-0.5,0.6-1C17,3.1,17,3,17.1,3
	c0,0,0,0,0,0.2c0,0.4-0.1,0.7-0.2,1c-0.2,0.5-0.6,1.1-1.3,1.6c-0.4,0.3-0.7,0.5-0.8,0.6c-0.2,0.2-0.3,0.4-0.4,0.7
	c0,0.1-0.1,0.1-0.1,0.2c0,0,0,0,0,0.1c0,0,0.1,0,0.2,0c0.2,0,0.3,0,0.6,0c0.2,0,0.4,0,0.5,0c0.2,0,0.6,0.1,0.9,0.1
	c0.6,0.1,1.1,0,1.6-0.2C18.4,7,18.5,6.8,19,6.4c0.2-0.2,0.3-0.2,0.3-0.2c0,0-0.2,0.3-0.4,0.7c-0.2,0.4-0.6,0.7-1.1,0.9
	c-0.2,0.1-0.2,0.1-0.3,0.1c-0.1,0-0.1,0-0.1,0.1c-0.1,0-0.3,0.1-0.7,0.2c-0.6,0.2-0.7,0.2-1,0.4c-0.2,0.1-0.5,0.4-0.5,0.5
	c0,0,0.1,0,0.2,0.1c0.2,0,0.3,0.1,0.4,0.1c0.1,0,0.4,0.2,0.5,0.2c0.1,0,0.2,0.1,0.2,0.1c0.4,0.2,0.5,0.3,0.7,0.4
	c0.1,0,0.2,0.1,0.3,0.1c0.1,0,0.2,0.1,0.2,0.1c0.1,0.1,0.6,0.2,0.8,0.2c0.3,0,0.6,0,0.8-0.1c0.1,0,0.4-0.1,0.4-0.1c0,0,0,0,0.1,0
	C19.8,10.1,20,10,20,10c0,0,0,0-0.2,0.2c-0.6,0.5-1,0.7-1.6,0.8c-0.4,0.1-0.8,0-1.6-0.1c-0.1,0-0.4,0-0.6,0c-0.3,0-0.5,0-0.8,0.1
	C15.1,11,15,11.1,15,11.1c0,0,0.1,0.1,0.1,0.1c0.3,0.2,0.5,0.4,0.8,0.8c0.4,0.6,0.8,1,1,1.2c0.3,0.3,0.5,0.4,0.8,0.5
	c0.3,0.1,0.4,0.1,0.9,0.1c0.3,0,0.5,0,0.5,0c0,0,0,0.1-0.3,0.2c-0.4,0.1-0.6,0.2-0.9,0.2c-0.3,0-0.4,0-0.7-0.1
	c-0.2,0-0.5-0.2-0.6-0.2c0,0-0.1,0-0.2-0.1c-0.2-0.1-0.2-0.1-0.5-0.3c-0.1-0.1-0.3-0.2-0.3-0.2c-0.4-0.2-0.7-0.3-1.2-0.4
	c-0.2,0-0.3,0-0.3,0c0,0,0,0.1,0.1,0.2c0.1,0.1,0.2,0.5,0.3,0.6c0,0.1,0.1,0.3,0.1,0.4c0.3,1.2,0.5,1.6,0.9,2c0.2,0.3,0.4,0.4,1,0.7
	c0.4,0.2,0.5,0.2,0.5,0.2c0,0-0.5,0-0.8-0.1c-0.7-0.1-1.3-0.5-2-1.5c-0.5-0.6-0.6-0.8-1-1c-0.2-0.1-0.4-0.2-0.4-0.2c0,0,0,0.1,0,0.2
	c0.1,0.4,0.1,0.6,0,1.2c0,0.3-0.1,0.8-0.1,1.1c0,0.5,0.1,1,0.2,1.4c0.1,0.2,0.2,0.3,0.5,0.7c0.3,0.3,0.4,0.4,0.3,0.4
	c0,0-0.4-0.2-0.5-0.3c-0.6-0.3-1-0.8-1.3-1.6c0-0.1-0.1-0.3-0.2-0.6c-0.2-0.8-0.3-1-0.5-1.2c-0.1-0.2-0.4-0.4-0.4-0.4c0,0,0,0,0,0.1
	c-0.1,0.3-0.2,0.7-0.4,1c0,0.1-0.1,0.1-0.1,0.2c-0.1,0.1-0.1,0.2-0.3,0.5c-0.2,0.3-0.2,0.3-0.2,0.4c0,0,0,0.1-0.1,0.2
	c-0.1,0.2-0.2,0.5-0.2,0.6c0,0.2,0,0.6,0,0.8c0,0.1,0.2,0.5,0.2,0.7C9.9,19.7,10,20,10,20C10,20,10,20,9.8,19.9L9.8,19.9z"/>
</svg>
